<svg width="287" height="61" viewBox="0 0 287 61" fill="none" xmlns="http://www.w3.org/2000/svg">
<path d="M17.944 12.572C19.576 12.572 20.868 12.8893 21.82 13.524C22.1827 13.7053 22.3187 14.0453 22.228 14.544L20.8 22.296C20.7547 22.84 20.4373 22.9987 19.848 22.772C19.168 22.5453 18.3747 22.432 17.468 22.432C17.1053 22.432 16.6067 22.4773 15.972 22.568C14.34 22.704 12.9573 23.316 11.824 24.404C10.6907 25.4467 10.124 26.852 10.124 28.62V47.184C10.124 47.4107 10.0333 47.6147 9.852 47.796C9.716 47.932 9.53467 48 9.308 48H1.352C1.12533 48 0.921334 47.932 0.74 47.796C0.604 47.6147 0.536 47.4107 0.536 47.184V13.864C0.536 13.6373 0.604 13.456 0.74 13.32C0.921334 13.1387 1.12533 13.048 1.352 13.048H9.308C9.53467 13.048 9.716 13.1387 9.852 13.32C10.0333 13.456 10.124 13.6373 10.124 13.864V16.448C10.124 16.584 10.1693 16.6747 10.26 16.72C10.3507 16.7653 10.4187 16.7427 10.464 16.652C12.3227 13.932 14.816 12.572 17.944 12.572ZM40.9088 12.504C43.8555 12.504 46.4848 13.0253 48.7968 14.068C51.1088 15.0653 52.8995 16.448 54.1688 18.216C55.4835 19.984 56.1408 21.956 56.1408 24.132V47.184C56.1408 47.4107 56.0501 47.6147 55.8688 47.796C55.7328 47.932 55.5515 48 55.3248 48H47.3688C47.1421 48 46.9381 47.932 46.7568 47.796C46.6208 47.6147 46.5528 47.4107 46.5528 47.184V44.94C46.5528 44.804 46.5075 44.7133 46.4168 44.668C46.3261 44.6227 46.2355 44.668 46.1448 44.804C44.2408 47.2973 41.1808 48.544 36.9648 48.544C33.4288 48.544 30.5728 47.6827 28.3968 45.96C26.2208 44.2373 25.1328 41.6987 25.1328 38.344C25.1328 34.8533 26.3568 32.156 28.8048 30.252C31.2528 28.3027 34.7435 27.328 39.2768 27.328H46.2128C46.4395 27.328 46.5528 27.2147 46.5528 26.988V25.492C46.5528 23.996 46.0995 22.84 45.1928 22.024C44.2861 21.1627 42.9261 20.732 41.1128 20.732C39.7075 20.732 38.5288 20.9813 37.5768 21.48C36.6701 21.9787 36.0808 22.6813 35.8088 23.588C35.6728 24.0867 35.3781 24.3133 34.9248 24.268L26.6968 23.18C26.1528 23.0893 25.9035 22.8853 25.9488 22.568C26.1301 20.664 26.8781 18.9413 28.1928 17.4C29.5528 15.8587 31.3208 14.6573 33.4968 13.796C35.7181 12.9347 38.1888 12.504 40.9088 12.504ZM39.5488 41.404C41.4981 41.404 43.1528 40.8827 44.5128 39.84C45.8728 38.7973 46.5528 37.46 46.5528 35.828V33.38C46.5528 33.1533 46.4395 33.04 46.2128 33.04H41.3168C39.2768 33.04 37.6675 33.4253 36.4888 34.196C35.3555 34.9667 34.7888 36.0547 34.7888 37.46C34.7888 38.684 35.2195 39.6587 36.0808 40.384C36.9421 41.064 38.0981 41.404 39.5488 41.404ZM102.455 12.504C105.991 12.504 108.756 13.5693 110.751 15.7C112.745 17.8307 113.743 20.8227 113.743 24.676V47.184C113.743 47.4107 113.652 47.6147 113.471 47.796C113.335 47.932 113.153 48 112.927 48H104.971C104.744 48 104.54 47.932 104.359 47.796C104.223 47.6147 104.155 47.4107 104.155 47.184V26.784C104.155 24.9253 103.679 23.452 102.727 22.364C101.775 21.276 100.505 20.732 98.9186 20.732C97.3319 20.732 96.0399 21.276 95.0426 22.364C94.0453 23.452 93.5466 24.9027 93.5466 26.716V47.184C93.5466 47.4107 93.4559 47.6147 93.2746 47.796C93.1386 47.932 92.9573 48 92.7306 48H84.8426C84.6159 48 84.4119 47.932 84.2306 47.796C84.0946 47.6147 84.0266 47.4107 84.0266 47.184V26.784C84.0266 24.9707 83.5279 23.52 82.5306 22.432C81.5333 21.2987 80.2413 20.732 78.6546 20.732C77.2039 20.732 75.9799 21.1627 74.9826 22.024C74.0306 22.8853 73.4639 24.0867 73.2826 25.628V47.184C73.2826 47.4107 73.1919 47.6147 73.0106 47.796C72.8746 47.932 72.6933 48 72.4666 48H64.5106C64.2839 48 64.0799 47.932 63.8986 47.796C63.7626 47.6147 63.6946 47.4107 63.6946 47.184V13.864C63.6946 13.6373 63.7626 13.456 63.8986 13.32C64.0799 13.1387 64.2839 13.048 64.5106 13.048H72.4666C72.6933 13.048 72.8746 13.1387 73.0106 13.32C73.1919 13.456 73.2826 13.6373 73.2826 13.864V16.516C73.2826 16.652 73.3279 16.7427 73.4186 16.788C73.5093 16.8333 73.5999 16.788 73.6906 16.652C75.5493 13.8867 78.4279 12.504 82.3266 12.504C84.5933 12.504 86.5653 12.98 88.2426 13.932C89.9653 14.884 91.2799 16.244 92.1866 18.012C92.3226 18.284 92.4813 18.284 92.6626 18.012C93.6599 16.1533 94.9973 14.7707 96.6746 13.864C98.3973 12.9573 100.324 12.504 102.455 12.504ZM135.212 12.504C138.159 12.504 140.788 13.0253 143.1 14.068C145.412 15.0653 147.203 16.448 148.472 18.216C149.787 19.984 150.444 21.956 150.444 24.132V47.184C150.444 47.4107 150.353 47.6147 150.172 47.796C150.036 47.932 149.855 48 149.628 48H141.672C141.445 48 141.241 47.932 141.06 47.796C140.924 47.6147 140.856 47.4107 140.856 47.184V44.94C140.856 44.804 140.811 44.7133 140.72 44.668C140.629 44.6227 140.539 44.668 140.448 44.804C138.544 47.2973 135.484 48.544 131.268 48.544C127.732 48.544 124.876 47.6827 122.7 45.96C120.524 44.2373 119.436 41.6987 119.436 38.344C119.436 34.8533 120.66 32.156 123.108 30.252C125.556 28.3027 129.047 27.328 133.58 27.328H140.516C140.743 27.328 140.856 27.2147 140.856 26.988V25.492C140.856 23.996 140.403 22.84 139.496 22.024C138.589 21.1627 137.229 20.732 135.416 20.732C134.011 20.732 132.832 20.9813 131.88 21.48C130.973 21.9787 130.384 22.6813 130.112 23.588C129.976 24.0867 129.681 24.3133 129.228 24.268L121 23.18C120.456 23.0893 120.207 22.8853 120.252 22.568C120.433 20.664 121.181 18.9413 122.496 17.4C123.856 15.8587 125.624 14.6573 127.8 13.796C130.021 12.9347 132.492 12.504 135.212 12.504ZM133.852 41.404C135.801 41.404 137.456 40.8827 138.816 39.84C140.176 38.7973 140.856 37.46 140.856 35.828V33.38C140.856 33.1533 140.743 33.04 140.516 33.04H135.62C133.58 33.04 131.971 33.4253 130.792 34.196C129.659 34.9667 129.092 36.0547 129.092 37.46C129.092 38.684 129.523 39.6587 130.384 40.384C131.245 41.064 132.401 41.404 133.852 41.404ZM189.21 22.432C190.026 24.744 190.434 27.464 190.434 30.592C190.434 33.72 190.003 36.5533 189.142 39.092C188.099 41.9933 186.444 44.3053 184.178 46.028C181.956 47.7053 179.191 48.544 175.882 48.544C172.618 48.544 170.079 47.4107 168.266 45.144C168.175 45.008 168.084 44.9627 167.994 45.008C167.903 45.0533 167.858 45.144 167.858 45.28V59.832C167.858 60.0587 167.767 60.24 167.586 60.376C167.45 60.5573 167.268 60.648 167.042 60.648H159.086C158.859 60.648 158.655 60.5573 158.474 60.376C158.338 60.24 158.27 60.0587 158.27 59.832V13.864C158.27 13.6373 158.338 13.456 158.474 13.32C158.655 13.1387 158.859 13.048 159.086 13.048H167.042C167.268 13.048 167.45 13.1387 167.586 13.32C167.767 13.456 167.858 13.6373 167.858 13.864V16.108C167.858 16.244 167.903 16.3347 167.994 16.38C168.084 16.38 168.175 16.3347 168.266 16.244C170.17 13.7507 172.799 12.504 176.154 12.504C179.282 12.504 181.979 13.388 184.246 15.156C186.558 16.8787 188.212 19.304 189.21 22.432ZM178.806 37.664C179.939 35.896 180.506 33.4933 180.506 30.456C180.506 27.6 180.03 25.3333 179.078 23.656C178.035 21.7067 176.358 20.732 174.046 20.732C171.96 20.732 170.396 21.7067 169.354 23.656C168.402 25.288 167.926 27.5773 167.926 30.524C167.926 33.5613 168.424 35.9187 169.422 37.596C170.464 39.4093 172.006 40.316 174.046 40.316C176.086 40.316 177.672 39.432 178.806 37.664ZM218.939 1.216C218.939 0.989332 219.007 0.807998 219.143 0.671997C219.324 0.490664 219.528 0.399997 219.755 0.399997H227.711C227.938 0.399997 228.119 0.490664 228.255 0.671997C228.436 0.807998 228.527 0.989332 228.527 1.216V47.184C228.527 47.4107 228.436 47.6147 228.255 47.796C228.119 47.932 227.938 48 227.711 48H219.755C219.528 48 219.324 47.932 219.143 47.796C219.007 47.6147 218.939 47.4107 218.939 47.184V44.94C218.939 44.804 218.894 44.736 218.803 44.736C218.712 44.6907 218.622 44.7133 218.531 44.804C216.627 47.2973 214.02 48.544 210.711 48.544C207.538 48.544 204.795 47.66 202.483 45.892C200.216 44.124 198.584 41.6987 197.587 38.616C196.816 36.2587 196.431 33.516 196.431 30.388C196.431 27.1693 196.839 24.3587 197.655 21.956C198.698 19.0547 200.33 16.7653 202.551 15.088C204.818 13.3653 207.606 12.504 210.915 12.504C214.179 12.504 216.718 13.6373 218.531 15.904C218.622 16.04 218.712 16.0853 218.803 16.04C218.894 15.9947 218.939 15.904 218.939 15.768V1.216ZM217.511 37.392C218.418 35.7147 218.871 33.4253 218.871 30.524C218.871 27.4867 218.372 25.1067 217.375 23.384C216.332 21.616 214.814 20.732 212.819 20.732C210.688 20.732 209.079 21.616 207.991 23.384C206.858 25.152 206.291 27.5547 206.291 30.592C206.291 33.312 206.767 35.5787 207.719 37.392C208.852 39.3413 210.53 40.316 212.751 40.316C214.791 40.316 216.378 39.3413 217.511 37.392ZM267.775 22.432C268.591 24.744 268.999 27.464 268.999 30.592C268.999 33.72 268.568 36.5533 267.707 39.092C266.664 41.9933 265.009 44.3053 262.743 46.028C260.521 47.7053 257.756 48.544 254.447 48.544C251.183 48.544 248.644 47.4107 246.831 45.144C246.74 45.008 246.649 44.9627 246.559 45.008C246.468 45.0533 246.423 45.144 246.423 45.28V59.832C246.423 60.0587 246.332 60.24 246.151 60.376C246.015 60.5573 245.833 60.648 245.607 60.648H237.651C237.424 60.648 237.22 60.5573 237.039 60.376C236.903 60.24 236.835 60.0587 236.835 59.832V13.864C236.835 13.6373 236.903 13.456 237.039 13.32C237.22 13.1387 237.424 13.048 237.651 13.048H245.607C245.833 13.048 246.015 13.1387 246.151 13.32C246.332 13.456 246.423 13.6373 246.423 13.864V16.108C246.423 16.244 246.468 16.3347 246.559 16.38C246.649 16.38 246.74 16.3347 246.831 16.244C248.735 13.7507 251.364 12.504 254.719 12.504C257.847 12.504 260.544 13.388 262.811 15.156C265.123 16.8787 266.777 19.304 267.775 22.432ZM257.371 37.664C258.504 35.896 259.071 33.4933 259.071 30.456C259.071 27.6 258.595 25.3333 257.643 23.656C256.6 21.7067 254.923 20.732 252.611 20.732C250.525 20.732 248.961 21.7067 247.919 23.656C246.967 25.288 246.491 27.5773 246.491 30.524C246.491 33.5613 246.989 35.9187 247.987 37.596C249.029 39.4093 250.571 40.316 252.611 40.316C254.651 40.316 256.237 39.432 257.371 37.664Z" fill="white"/>
<path d="M280.784 48.272C279.242 48.272 277.95 47.7733 276.908 46.776C275.91 45.7333 275.412 44.4413 275.412 42.9C275.412 41.3133 275.91 40.0213 276.908 39.024C277.905 38.0267 279.197 37.528 280.784 37.528C282.37 37.528 283.662 38.0267 284.66 39.024C285.657 40.0213 286.156 41.3133 286.156 42.9C286.156 44.4413 285.634 45.7333 284.592 46.776C283.594 47.7733 282.325 48.272 280.784 48.272Z" fill="#005FCC"/>
</svg>
